<svg width="173" height="40" xmlns="http://www.w3.org/2000/svg">

 <g>
  <title>Layer 1</title>
  <path id="svg_1" d="m85.8568,15.4571l-2.216,0l-0.9548,3.3273l1.2256,0c2.7313,0.1359 3.1145,-3.3273 1.9452,-3.3273z"/>
  <path id="svg_2" d="m51.9724,15.4214l-2.216,0l-1.6697,5.2806l1.1475,0c2.2619,0.091 2.3721,-0.926 2.3721,-0.926l1.1143,-3.439c0.1377,-0.4204 0.0516,-0.8937 -0.7471,-0.9145l-0.0011,-0.0011z"/>
  <path id="svg_3" d="m162.72,7.25693l2.472,-7.25691l-146.0103,0l-2.2573,6.78932c-10.71948,0.90294 -12.32378,6.45076 -12.551,7.72796c-0.5187,2.5476 -0.17443,4.4709 0.41427,5.8553l-0.51411,-0.068l-4.27356,11.1071l3.31075,0.7394c1.79365,0.4008 3.4473,0.63 4.93226,0.7521l-2.35941,7.0968l145.6864,0l2.538,-7.4492l6.45,0l4.062,-13.0673l4.381,0l3.999,-12.22542l-10.28,0l0,-0.00115zm-142.5101,18.65197c-0.6862,1.5651 -2.1884,3.0762 -4.9173,3.7983c0,0 -4.5536,1.101 -11.34725,-0.4146l2.224,-5.7793l5.59555,0.7452c0,0 1.7833,0.1071 1.5022,-1.1587c0,0 -0.0551,-0.5954 -1.5802,-0.8603c0,0 -5.80903,-0.6208 -4.44342,-7.1786c0,0 0.84231,-6.65917 16.83722,-5.28057l-1.6675,5.48787l-6.6238,0.4826c0,0 -1.1992,-0.076 -1.1808,0.7405c0,0 -0.2433,0.6461 0.8182,0.873c0,0 4.5146,0.911 5.1216,3.6463c0,0 0.7081,2.5119 -0.3385,4.8994l0,-0.0011zm8.655,3.6889c-3.0686,-0.0161 -5.6667,0.0127 -6.9417,-1.6493c-0.8056,-1.0503 -0.9536,-2.0373 -0.552,-3.2846l4.3425,-14.3503l6.7959,0l-3.9477,12.8899c0,0 -0.5038,1.1724 0.8756,1.2876c1.8453,0.1532 2.4673,-0.6749 2.5798,-1.0423l4.0222,-13.1341l7.1414,-0.0702l-5.0287,15.8118c-0.9938,3.082 -4.6052,3.5657 -9.2885,3.5426l0.0012,-0.0011zm17.6095,-3.4632l-1.0753,3.515l-7.1195,0l5.9214,-19.336l8.3452,0c2.8724,0 5.3029,0.9329 6.4999,2.4946c0.7688,1.002 0.9949,2.1963 0.6369,3.363l-1.5412,5.0272c-0.847,2.7675 -4.9989,4.935 -9.4514,4.935l-2.216,0l0,0.0012zm9.8737,3.5841l5.9215,-19.336l14.8943,0l-1.5641,5.1078l-7.7748,0l-0.6151,2.0063l7.7381,0l-1.5642,5.1067l-7.7381,0l-0.6151,2.0074l7.7748,0l-1.5641,5.1078l-14.8955,0l0.0023,0zm32.9135,-0.0057l-6.4138,0c1.0673,-3.3723 1.5298,-5.0952 -0.7906,-5.1689l-1.1992,0l-1.5745,5.1435l-7.1196,0l5.9215,-19.336l8.3452,0c2.8723,0 5.3018,0.7555 6.4619,2.3449c1.4345,1.9648 0.1332,5.2863 0.1332,5.2863c-0.4178,1.3648 -2.1827,4.2682 -4.02,5.2011c1.4219,1.2968 2.3537,1.9165 0.2559,6.5302l0,-0.0011zm9.9323,0.843c-3.0204,0 -5.4441,-1.0077 -6.6491,-2.7652c-0.762,-1.1103 -0.957,-2.4371 -0.5485,-3.735l3.4427,-10.772c0.9731,-3.0969 4.671,-3.50232 9.305,-3.50232c3.02,0 5.641,0.20155 7.265,2.28272c0.894,1.1459 0.686,1.7402 0.279,3.0393l-1.428,4.0011l-6.896,0l1.371,-3.8767c0,0 -1.555,-0.0472 -1.563,-0.0472c-1.37,0.0081 -1.528,-0.1486 -1.732,0.4503l-3.0515,8.4927c0,0 -0.3604,1.017 0.926,1.0342c1.5155,0.0208 2.1725,-0.0161 2.1725,-0.0161l0.987,-2.5579l6.939,0l-1.674,4.9673c-0.762,3.006 -4.51,3.006 -9.1451,3.006l0,-0.0012zm9.7151,-0.8684l5.922,-19.336l14.894,0l-1.564,5.1078l-7.775,0l-0.615,2.0063l7.738,0l-1.564,5.1067l-7.738,0l-0.615,2.0074l7.775,0l-1.565,5.1078l-14.894,0l0.001,0zm27.016,-0.0645l-1.182,-6.696l-0.731,-0.6346l-1.855,7.3306l-7.12,0l5.898,-19.2704l7.43,0c0.009,0.0726 1.383,8.9073 1.393,8.9787c0,0.0012 0.73,0.5195 0.73,0.5206l2.906,-9.5004l7.119,0l-5.897,19.2704l-8.689,0l-0.002,0.0011zm30.962,-13.0673l-4.414,0l-4.062,13.0673l-8.36,0l4.062,-13.0673l-4.548,0l2.083,-6.3666l17.322,0l-2.083,6.3666z"/>
 </g>
</svg>